<?xml version="1.0" encoding="utf-8"?>
<!-- Generator: Adobe Illustrator 16.0.0, SVG Export Plug-In . SVG Version: 6.00 Build 0)  -->
<!DOCTYPE svg PUBLIC "-//W3C//DTD SVG 1.1//EN" "http://www.w3.org/Graphics/SVG/1.1/DTD/svg11.dtd">
<svg version="1.1" id="Layer_1" xmlns="http://www.w3.org/2000/svg" xmlns:xlink="http://www.w3.org/1999/xlink" x="0px" y="0px"
	 width="88.316px" height="88.318px" viewBox="0 0 88.316 88.318" enable-background="new 0 0 88.316 88.318" xml:space="preserve">
<path fill="#B750C9" d="M88.316,73.268c0,8.312-6.738,15.051-15.054,15.051H15.05C6.737,88.319,0,81.581,0,73.268V15.052
	C0,6.74,6.737,0,15.05,0h58.213c8.314,0,15.054,6.74,15.054,15.052V73.268z"/>
<path fill="#FFFFFF" d="M51.273,46.878c1.131-1.11,1.524-3.917,2.56-4.927c1.467-1.434,3.058-3.197,3.508-5.399
	c0.604-2.925-0.622-3.297-0.622-4.308c0-2.119-0.02-5.598-0.681-7.858c-0.039-2.981-0.527-4.278-1.554-5.394
	c-0.968-1.045-3.345-0.798-4.587-1.486c-1.921-1.066-3.5-1.471-5.517-1.524v-0.012c-0.06,0-0.116,0.007-0.176,0.007
	c-0.099,0-0.192-0.007-0.295-0.007l0.004,0.019c-4.91,0.185-10.134,3.281-11.929,8.26c-0.667,1.845-0.412,5.875-0.412,7.995
	c0,1.011-1.228,1.383-0.623,4.308c0.453,2.202,2.042,3.965,3.508,5.399c1.035,1.011,1.428,3.817,2.557,4.926
	c0.246,1.635,0.275,1.168,0.265,2.663c-0.002,0.505,0.015,1.289-0.792,2.061c-1.527,1.462-5.033,4.632-7.908,5.866
	c-3.791,1.627-9.955,4.23-11.375,4.963c-1.421,0.733-5.171,2.721-5.171,3.985c0,1.269,0,5.934,0,5.934h31.762h0.727h31.761
	c0,0,0-4.665,0-5.934c0-1.265-3.748-3.252-5.171-3.985c-1.424-0.732-7.583-3.336-11.373-4.963c-2.801-1.2-6.197-4.239-7.784-5.747
	c-0.536-0.507-0.915-1.039-0.92-2.334c-0.01-1.505,0.029-0.93,0.269-2.508"/>
</svg>