<?xml version="1.0" encoding="utf-8"?>
<!-- Generator: Adobe Illustrator 16.0.0, SVG Export Plug-In . SVG Version: 6.00 Build 0)  -->
<!DOCTYPE svg PUBLIC "-//W3C//DTD SVG 1.1//EN" "http://www.w3.org/Graphics/SVG/1.1/DTD/svg11.dtd">
<svg version="1.1" id="Layer_1" xmlns="http://www.w3.org/2000/svg" xmlns:xlink="http://www.w3.org/1999/xlink" x="0px" y="0px"
	 width="88.316px" height="88.318px" viewBox="0 0 88.316 88.318" enable-background="new 0 0 88.316 88.318" xml:space="preserve">
<path fill="#B750C9" d="M88.316,73.268c0,8.312-6.738,15.051-15.054,15.051H15.05C6.737,88.319,0,81.581,0,73.268V15.052
	C0,6.74,6.737,0,15.05,0h58.213c8.314,0,15.054,6.74,15.054,15.052V73.268z"/>
<g>
	<rect x="32.975" y="66.79" fill="#FFFFFF" width="38.122" height="5.738"/>
	<rect x="20.097" y="66.79" fill="#FFFFFF" width="7.14" height="5.738"/>
</g>
<g>
	<rect x="32.975" y="54.039" fill="#FFFFFF" width="38.122" height="5.739"/>
	<rect x="20.097" y="54.039" fill="#FFFFFF" width="7.14" height="5.739"/>
</g>
<g>
	<rect x="20.097" y="41.291" fill="#FFFFFF" width="7.14" height="5.736"/>
	<rect x="32.975" y="41.291" fill="#FFFFFF" width="38.122" height="5.736"/>
</g>
<g>
	<rect x="20.097" y="28.54" fill="#FFFFFF" width="7.14" height="5.738"/>
	<rect x="32.975" y="28.54" fill="#FFFFFF" width="38.122" height="5.738"/>
</g>
<g>
	<rect x="20.097" y="15.791" fill="#FFFFFF" width="7.14" height="5.737"/>
	<rect x="32.975" y="15.791" fill="#FFFFFF" width="38.122" height="5.737"/>
</g>
</svg>